<svg width="174" height="30" viewBox="0 0 174 30" fill="none" xmlns="http://www.w3.org/2000/svg">
<path d="M1 5.33351L-1.19829e-08 5.33351L-3.9801e-08 4.33351L1 4.33351L1 5.33351ZM162.667 5.3335C162.667 2.38798 165.054 0.000164949 168 0.000164691C170.946 0.000164434 173.333 2.38798 173.333 5.3335C173.333 8.27901 170.946 10.6668 168 10.6668C165.054 10.6668 162.667 8.27902 162.667 5.3335ZM1 5.33351L1 4.33351L168 4.3335L168 5.3335L168 6.3335L1 6.33351L1 5.33351ZM1 5.33351L2 5.33351L2 29.3335L1 29.3335L0 29.3335L-1.19829e-08 5.33351L1 5.33351Z" fill="white"/>
</svg>
