<svg width="174" height="30" viewBox="0 0 174 30" fill="none" xmlns="http://www.w3.org/2000/svg">
<path d="M172.333 24L173.333 24L173.333 25L172.333 25L172.333 24ZM10.6667 24C10.6667 26.9455 8.2789 29.3333 5.33338 29.3333C2.38787 29.3333 4.8132e-05 26.9455 4.78745e-05 24C4.7617e-05 21.0545 2.38786 18.6667 5.33338 18.6667C8.2789 18.6667 10.6667 21.0545 10.6667 24ZM172.333 24L172.333 25L5.33338 25L5.33338 24L5.33338 23L172.333 23L172.333 24ZM172.333 24L171.333 24L171.333 1.54273e-09L172.333 0L173.333 -1.54273e-09L173.333 24L172.333 24Z" fill="white"/>
</svg>
