<svg width="174" height="30" viewBox="0 0 174 30" fill="none" xmlns="http://www.w3.org/2000/svg">
<path d="M172.333 5.33351L173.333 5.33351L173.333 4.33351L172.333 4.33351L172.333 5.33351ZM10.6667 5.3335C10.6667 2.38798 8.2789 0.000164949 5.33338 0.000164691C2.38787 0.000164434 4.8132e-05 2.38798 4.78745e-05 5.3335C4.7617e-05 8.27901 2.38786 10.6668 5.33338 10.6668C8.2789 10.6668 10.6667 8.27902 10.6667 5.3335ZM172.333 5.33351L172.333 4.33351L5.33338 4.3335L5.33338 5.3335L5.33338 6.3335L172.333 6.33351L172.333 5.33351ZM172.333 5.33351L171.333 5.33351L171.333 29.3335L172.333 29.3335L173.333 29.3335L173.333 5.33351L172.333 5.33351Z" fill="white"/>
</svg>
