<svg width="28" height="28" viewBox="0 0 28 28" fill="none" xmlns="http://www.w3.org/2000/svg">
<g clip-path="url(#clip0_1_185)">
<path d="M14 9V6" stroke="#414758" stroke-width="2" stroke-linecap="round" stroke-linejoin="round"/>
<path d="M11 17C11 18.5 12.34 19 14 19C15.66 19 17 19 17 17C17 14 11 14 11 11C11 9 12.34 9 14 9C15.66 9 17 9.76 17 11" stroke="#414758" stroke-width="2" stroke-linecap="round" stroke-linejoin="round"/>
<path d="M14 19V22" stroke="#414758" stroke-width="2" stroke-linecap="round" stroke-linejoin="round"/>
<path d="M14 27C21.1797 27 27 21.1797 27 14C27 6.8203 21.1797 1 14 1C6.8203 1 1 6.8203 1 14C1 21.1797 6.8203 27 14 27Z" stroke="#414758" stroke-width="2" stroke-linecap="round" stroke-linejoin="round"/>
</g>
<defs>
<clipPath id="clip0_1_185">
<rect width="28" height="28" fill="white"/>
</clipPath>
</defs>
</svg>
