<svg width="140" height="52" viewBox="0 0 140 52" fill="none" xmlns="http://www.w3.org/2000/svg">
<path d="M77.4053 30.9871L69.7194 10.0622H61.2851L61.3163 10.125C61.5501 10.3133 61.784 10.5331 61.9555 10.8314C65.8842 17.4087 73.8352 31.5522 73.8352 38.4121C73.8352 42.776 72.3541 46.9673 69.7194 50.044C69.7194 50.044 69.6882 50.0754 69.6726 50.0911H76.4699L93.1826 10.0779H85.1849L77.3898 31.0028L77.4053 30.9871Z" fill="#414758"/>
<path d="M138.706 32.8237C137.849 31.9604 136.757 31.5208 135.432 31.5208C134.107 31.5208 132.938 31.9604 132.049 32.8237C131.192 33.6557 130.755 34.6918 130.755 35.9633C130.755 37.2348 131.192 38.2865 132.049 39.1499C132.938 39.9819 134.076 40.39 135.432 40.39C136.788 40.39 137.849 39.9819 138.706 39.1499C139.563 38.2865 140 37.2191 140 35.9633C140 34.7075 139.563 33.6557 138.706 32.8237Z" fill="#414758"/>
<path d="M53.8018 17.5813L53.833 17.5186C55.2361 14.9284 56.5924 12.6052 57.6526 10.8314C57.7929 10.6116 57.9488 10.4232 58.1203 10.2506L58.2294 10.0622C53.2405 8.88486 51.1826 10.0779 49.608 10.9883C48.0646 11.8831 46.8174 13.1389 45.8508 14.7244V10.0779H38.3363V40.0446H45.8508C45.804 39.5109 45.7884 38.9772 45.7884 38.4278C45.7884 38.0667 45.8196 37.6586 45.8664 37.2505V25.1162C45.8664 22.3377 46.4588 20.3912 47.6437 19.2767C48.8597 18.1622 50.6526 17.597 53.0223 17.597H53.8174L53.8018 17.5813Z" fill="#414758"/>
<path d="M23.3697 14.2221C22.3252 12.8093 20.9376 11.6947 19.1759 10.8628C17.4143 9.99939 15.5746 9.55986 13.6414 9.55986C11.1002 9.55986 8.79287 10.1878 6.71938 11.4593C4.64588 12.7151 2.99332 14.5203 1.77728 16.875C0.592428 19.2139 0 21.8982 0 24.9278C0 27.9575 0.592428 30.7203 1.77728 33.0906C2.99332 35.4295 4.64588 37.2505 6.71938 38.5534C8.79287 39.8563 11.0846 40.4999 13.5947 40.4999C15.8085 40.4999 17.7728 40.0447 19.4566 39.1499C21.1403 38.2551 22.4499 37.0621 23.3853 35.5865V40.029H31.0089V0H23.3853V14.2221H23.3697ZM22.3408 29.7941C21.6236 31.097 20.657 32.1017 19.441 32.8237C18.2249 33.5144 16.9154 33.8441 15.5122 33.8441C14.1091 33.8441 12.8619 33.483 11.6459 32.761C10.461 32.0389 9.49443 31.0185 8.7461 29.6842C8.02895 28.3185 7.67038 26.7331 7.67038 24.9278C7.67038 23.1226 8.02895 21.5685 8.7461 20.2813C9.49443 18.947 10.461 17.9424 11.6459 17.2517C12.8307 16.561 14.1091 16.2313 15.5122 16.2313C16.9154 16.2313 18.2094 16.5924 19.441 17.3145C20.657 18.0052 21.6236 19.0098 22.3408 20.3441C23.0579 21.647 23.4165 23.2168 23.4165 25.0534C23.4165 26.89 23.0579 28.4755 22.3408 29.8098V29.7941Z" fill="#414758"/>
<path d="M119.857 11.5221C117.784 10.2192 115.492 9.57555 112.982 9.57555C110.768 9.57555 108.804 10.0308 107.12 10.9255C105.437 11.8203 104.127 13.0133 103.192 14.4889V10.0465H95.5679V50.0597H103.192V35.8377C104.236 37.2505 105.624 38.365 107.385 39.197C109.147 40.0603 110.987 40.4999 112.92 40.4999C115.461 40.4999 117.768 39.872 119.842 38.6005C121.915 37.3447 123.568 35.5394 124.784 33.1848C125.969 30.8458 126.561 28.1615 126.561 25.1319C126.561 22.1023 125.969 19.3395 124.784 16.9691C123.568 14.6302 121.915 12.8093 119.842 11.5064L119.857 11.5221ZM117.815 29.7941C117.067 31.1284 116.1 32.133 114.915 32.8237C113.731 33.5144 112.452 33.8441 111.049 33.8441C109.646 33.8441 108.352 33.483 107.136 32.761C105.92 32.0703 104.953 31.0656 104.236 29.7313C103.519 28.4284 103.16 26.8586 103.16 25.022C103.16 23.1854 103.519 21.5999 104.236 20.2656C104.953 18.9627 105.92 17.9581 107.136 17.236C108.352 16.5453 109.661 16.2157 111.049 16.2157C112.437 16.2157 113.699 16.5767 114.915 17.2988C116.1 18.0209 117.067 19.0412 117.815 20.3755C118.532 21.7412 118.891 23.3267 118.891 25.1319C118.891 26.9371 118.532 28.4912 117.815 29.7784V29.7941Z" fill="#414758"/>
<path d="M48.2049 39.5423C47.9399 49.3533 60.5679 56.4801 67.6771 48.6783C59.3987 52.1318 51.8062 47.14 48.2049 39.5423Z" fill="#414758"/>
<path d="M67.9421 32.2115C67.7706 32.2429 67.6459 32.3999 67.6771 32.5726C68.1136 35.6022 67.5523 38.6476 66.1025 40.9551C64.902 43.0586 68.2851 44.5185 68.971 42.1952C69.9688 38.8045 69.5479 35.304 68.2851 32.3999C68.2227 32.2743 68.098 32.1958 67.9421 32.2115Z" fill="#414758"/>
</svg>
