<svg preserveAspectRatio="none" width="100%" height="100%" overflow="visible" style="display: block;" viewBox="0 0 28.0159 28.0405" fill="none" xmlns="http://www.w3.org/2000/svg">
<g id="Group">
<path id="Vector" d="M3.86795 19L1.26795 24.1C1.09241 24.404 1 24.7489 1 25.1C1 25.4511 1.09241 25.796 1.26795 26.1C1.45162 26.3941 1.70859 26.6353 2.01363 26.8001C2.31868 26.9649 2.66132 27.0476 3.00795 27.04H25.0079C25.3546 27.0476 25.6972 26.9649 26.0023 26.8001C26.3073 26.6353 26.5643 26.3941 26.7479 26.1C26.9235 25.796 27.0159 25.4511 27.0159 25.1C27.0159 24.7489 26.9235 24.404 26.7479 24.1L24.2279 19H3.86795Z" stroke="var(--stroke-0, #414758)" stroke-width="2" stroke-linecap="round" stroke-linejoin="round"/>
<path id="Vector_2" d="M10.0469 5L14.0469 1L18.0469 5" stroke="var(--stroke-0, #414758)" stroke-width="2" stroke-linecap="round" stroke-linejoin="round"/>
<path id="Vector_3" d="M14.0469 1V13" stroke="var(--stroke-0, #414758)" stroke-width="2" stroke-linecap="round" stroke-linejoin="round"/>
<path id="Vector_4" d="M6.04688 9C5.51644 9 5.00773 9.21071 4.63266 9.58579C4.25759 9.96086 4.04688 10.4696 4.04688 11V19H24.0469V11C24.0469 10.4696 23.8362 9.96086 23.4611 9.58579C23.086 9.21071 22.5773 9 22.0469 9" stroke="var(--stroke-0, #414758)" stroke-width="2" stroke-linecap="round" stroke-linejoin="round"/>
</g>
</svg>
