<svg preserveAspectRatio="none" width="100%" height="100%" overflow="visible" style="display: block;" viewBox="0 0 997 780" fill="none" xmlns="http://www.w3.org/2000/svg">
<g id="Lines">
<path id="Line 17" d="M1 24L0 24L-2.78182e-08 25L1 25L1 24ZM162.667 24C162.667 26.9455 165.054 29.3333 168 29.3333C170.946 29.3333 173.333 26.9455 173.333 24C173.333 21.0545 170.946 18.6667 168 18.6667C165.054 18.6667 162.667 21.0545 162.667 24ZM1 24L1 25L168 25L168 24L168 23L1 23L1 24ZM1 24L2 24L2 3.08546e-09L1 1.54273e-09L1.19828e-08 0L0 24L1 24Z" fill="var(--stroke-0, white)"/>
<path id="Line 19" d="M1 756L0 756L-2.78182e-08 755L1 755L1 756ZM162.667 756C162.667 753.054 165.054 750.667 168 750.667C170.946 750.667 173.333 753.054 173.333 756C173.333 758.946 170.946 761.333 168 761.333C165.054 761.333 162.667 758.946 162.667 756ZM1 756L1 755L168 755L168 756L168 757L1 757L1 756ZM1 756L2 756L2 780L1 780L1.19828e-08 780L0 756L1 756Z" fill="var(--stroke-0, white)"/>
<path id="Line 18" d="M996 24L997 24L997 25L996 25L996 24ZM834.333 24C834.333 26.9455 831.946 29.3333 829 29.3333C826.054 29.3333 823.667 26.9455 823.667 24C823.667 21.0545 826.054 18.6667 829 18.6667C831.946 18.6667 834.333 21.0545 834.333 24ZM996 24L996 25L829 25L829 24L829 23L996 23L996 24ZM996 24L995 24L995 3.08546e-09L996 1.54273e-09L997 0L997 24L996 24Z" fill="var(--stroke-0, white)"/>
<path id="Line 20" d="M996 756L997 756L997 755L996 755L996 756ZM834.333 756C834.333 753.054 831.946 750.667 829 750.667C826.054 750.667 823.667 753.054 823.667 756C823.667 758.946 826.054 761.333 829 761.333C831.946 761.333 834.333 758.946 834.333 756ZM996 756L996 755L829 755L829 756L829 757L996 757L996 756ZM996 756L995 756L995 780L996 780L997 780L997 756L996 756Z" fill="var(--stroke-0, white)"/>
</g>
</svg>
