<svg preserveAspectRatio="none" width="100%" height="100%" overflow="visible" style="display: block;" viewBox="0 0 89.8 33.126" fill="none" xmlns="http://www.w3.org/2000/svg">
<g id="Vector">
<path d="M49.65 19.74L44.72 6.41H39.31L39.33 6.45C39.48 6.57 39.63 6.71 39.74 6.9C42.26 11.09 47.36 20.1 47.36 24.47C47.36 27.25 46.41 29.92 44.72 31.88C44.72 31.88 44.7 31.9 44.69 31.91H49.05L59.77 6.42H54.64L49.64 19.75L49.65 19.74Z" fill="white"/>
<path d="M88.97 20.91C88.42 20.36 87.72 20.08 86.87 20.08C86.02 20.08 85.27 20.36 84.7 20.91C84.15 21.44 83.87 22.1 83.87 22.91C83.87 23.72 84.15 24.39 84.7 24.94C85.27 25.47 86 25.73 86.87 25.73C87.74 25.73 88.42 25.47 88.97 24.94C89.52 24.39 89.8 23.71 89.8 22.91C89.8 22.11 89.52 21.44 88.97 20.91Z" fill="white"/>
<path d="M34.51 11.2L34.53 11.16C35.43 9.51 36.3 8.03 36.98 6.9C37.07 6.76 37.17 6.64 37.28 6.53L37.35 6.41C34.15 5.66 32.83 6.42 31.82 7C30.83 7.57 30.03 8.37 29.41 9.38V6.42H24.59V25.51H29.41C29.38 25.17 29.37 24.83 29.37 24.48C29.37 24.25 29.39 23.99 29.42 23.73V16C29.42 14.23 29.8 12.99 30.56 12.28C31.34 11.57 32.49 11.21 34.01 11.21H34.52L34.51 11.2Z" fill="white"/>
<path d="M14.99 9.06C14.32 8.16 13.43 7.45 12.3 6.92C11.17 6.37 9.99 6.09 8.75 6.09C7.12 6.09 5.64 6.49 4.31 7.3C2.98 8.1 1.92 9.25 1.14 10.75C0.38 12.24 0 13.95 0 15.88C0 17.81 0.38 19.57 1.14 21.08C1.92 22.57 2.98 23.73 4.31 24.56C5.64 25.39 7.11 25.8 8.72 25.8C10.14 25.8 11.4 25.51 12.48 24.94C13.56 24.37 14.4 23.61 15 22.67V25.5H19.89V0H15V9.06H14.99ZM14.33 18.98C13.87 19.81 13.25 20.45 12.47 20.91C11.69 21.35 10.85 21.56 9.95 21.56C9.05 21.56 8.25 21.33 7.47 20.87C6.71 20.41 6.09 19.76 5.61 18.91C5.15 18.04 4.92 17.03 4.92 15.88C4.92 14.73 5.15 13.74 5.61 12.92C6.09 12.07 6.71 11.43 7.47 10.99C8.23 10.55 9.05 10.34 9.95 10.34C10.85 10.34 11.68 10.57 12.47 11.03C13.25 11.47 13.87 12.11 14.33 12.96C14.79 13.79 15.02 14.79 15.02 15.96C15.02 17.13 14.79 18.14 14.33 18.99V18.98Z" fill="white"/>
<path d="M76.88 7.34C75.55 6.51 74.08 6.1 72.47 6.1C71.05 6.1 69.79 6.39 68.71 6.96C67.63 7.53 66.79 8.29 66.19 9.23V6.4H61.3V31.89H66.19V22.83C66.86 23.73 67.75 24.44 68.88 24.97C70.01 25.52 71.19 25.8 72.43 25.8C74.06 25.8 75.54 25.4 76.87 24.59C78.2 23.79 79.26 22.64 80.04 21.14C80.8 19.65 81.18 17.94 81.18 16.01C81.18 14.08 80.8 12.32 80.04 10.81C79.26 9.32 78.2 8.16 76.87 7.33L76.88 7.34ZM75.57 18.98C75.09 19.83 74.47 20.47 73.71 20.91C72.95 21.35 72.13 21.56 71.23 21.56C70.33 21.56 69.5 21.33 68.72 20.87C67.94 20.43 67.32 19.79 66.86 18.94C66.4 18.11 66.17 17.11 66.17 15.94C66.17 14.77 66.4 13.76 66.86 12.91C67.32 12.08 67.94 11.44 68.72 10.98C69.5 10.54 70.34 10.33 71.23 10.33C72.12 10.33 72.93 10.56 73.71 11.02C74.47 11.48 75.09 12.13 75.57 12.98C76.03 13.85 76.26 14.86 76.26 16.01C76.26 17.16 76.03 18.15 75.57 18.97V18.98Z" fill="white"/>
<path d="M30.92 25.19C30.75 31.44 38.85 35.98 43.41 31.01C38.1 33.21 33.23 30.03 30.92 25.19Z" fill="white"/>
<path d="M43.58 20.52C43.47 20.54 43.39 20.64 43.41 20.75C43.69 22.68 43.33 24.62 42.4 26.09C41.63 27.43 43.8 28.36 44.24 26.88C44.88 24.72 44.61 22.49 43.8 20.64C43.76 20.56 43.68 20.51 43.58 20.52Z" fill="white"/>
</g>
</svg>
